<svg width="23" height="23" viewBox="0 0 23 23" fill="none" xmlns="http://www.w3.org/2000/svg">
<path d="M16.0941 11.2239C15.9774 11.0076 15.7555 10.8727 15.5141 10.8727H11.756V3.45223C11.756 3.07753 11.4589 2.77344 11.0929 2.77344C10.7269 2.77344 10.4299 3.07753 10.4299 3.45223V10.8727H6.67176C6.42953 10.8727 6.20763 11.0076 6.09182 11.2239C5.97424 11.4402 5.98219 11.7045 6.11038 11.9135L10.5316 19.096C10.6536 19.2933 10.8648 19.4128 11.0929 19.4128C11.321 19.4128 11.5323 19.2933 11.6543 19.096L16.0755 11.9135C16.1427 11.8031 16.1772 11.6773 16.1772 11.5515C16.1772 11.4393 16.1489 11.3262 16.0941 11.2239Z" fill="#FA2256"/>
</svg>
