<svg width="23" height="23" viewBox="0 0 23 23" fill="none" xmlns="http://www.w3.org/2000/svg">
<path d="M6.09165 10.9623C6.20834 11.1786 6.43024 11.3135 6.67159 11.3135H10.4297V18.734C10.4297 19.1087 10.7268 19.4128 11.0928 19.4128C11.4588 19.4128 11.7558 19.1087 11.7558 18.734V11.3135H15.5139C15.7562 11.3135 15.9781 11.1786 16.0939 10.9623C16.2115 10.746 16.2035 10.4817 16.0753 10.2727L11.6541 3.09021C11.5321 2.8929 11.3209 2.77344 11.0928 2.77344C10.8647 2.77344 10.6534 2.8929 10.5314 3.09021L6.11021 10.2727C6.04302 10.3831 6.00854 10.5089 6.00854 10.6347C6.00854 10.7469 6.03683 10.8601 6.09165 10.9623Z" fill="#1BA27A"/>
</svg>
