<svg width="49" height="49" viewBox="0 0 49 49" fill="none" xmlns="http://www.w3.org/2000/svg">
<g clip-path="url(#clip0_3221_43804)">
<ellipse cx="24.4044" cy="24.4045" rx="24.4044" ry="24.4045" fill="#F3BA2F"/>
<path d="M18.085 21.808L24.4043 15.4886L30.7267 21.8108L34.4036 18.1338L24.4043 8.13477L14.4083 18.1308L18.0851 21.8078L18.085 21.808ZM8.13477 24.4044L11.8118 20.7268L15.4886 24.4036L11.8116 28.0807L8.13477 24.4044ZM18.085 27.0012L24.4043 33.3202L30.7266 26.9982L34.4055 30.6732L34.4036 30.6751L24.4043 40.6741L14.4083 30.678L14.4031 30.6728L18.0854 27.0008L18.085 27.0012ZM33.3201 24.406L36.9971 20.7289L40.6739 24.4057L36.997 28.0828L33.3201 24.406Z" fill="white"/>
<path d="M28.1335 24.403H28.1351L24.4043 20.6719L21.6467 23.4288L21.3299 23.7457L20.6765 24.3993L20.6713 24.4043L20.6765 24.4097L24.4043 28.1381L28.1354 24.4069L28.1372 24.4049L28.1338 24.403" fill="white"/>
</g>
<defs>
<clipPath id="clip0_3221_43804">
<rect width="48.8087" height="48.8087" fill="white"/>
</clipPath>
</defs>
</svg>
