<svg width="49" height="49" viewBox="0 0 49 49" fill="none" xmlns="http://www.w3.org/2000/svg">
<g clip-path="url(#clip0_3221_43764)">
<path d="M48.0788 30.306C44.8182 43.3868 31.5653 51.3384 18.5032 48.0775C5.42209 44.8169 -2.52954 31.5646 0.731304 18.5027C3.99196 5.42194 17.2256 -2.52969 30.3067 0.731153C43.3688 3.97274 51.3397 17.2251 48.0788 30.306Z" fill="url(#paint0_linear_3221_43764)"/>
<path d="M36.0242 21.3631C36.5008 18.1219 34.0413 16.3678 30.6476 15.2048L31.7534 10.8006L29.0842 10.1333L28.0165 14.4231C27.311 14.2515 26.5865 14.0799 25.862 13.9274L26.9297 9.61848L24.2605 8.95117L23.1737 13.3363C22.5827 13.2029 22.0107 13.0694 21.4578 12.9359V12.9169L17.759 12.0017L17.0536 14.8616C17.0536 14.8616 19.0364 15.3192 18.9983 15.3383C20.0851 15.6052 20.2757 16.3297 20.2376 16.9017L18.9792 21.916C19.0555 21.9351 19.1508 21.9541 19.2652 22.0113C19.1699 21.9923 19.0746 21.9732 18.9792 21.9351L17.2252 28.9513C17.0917 29.2754 16.7485 29.7712 16.005 29.5805C16.024 29.6186 14.0602 29.1038 14.0602 29.1038L12.7256 32.1735L16.2147 33.0505C16.8629 33.2221 17.4921 33.3746 18.1213 33.5462L17.0154 37.9886L19.6847 38.6559L20.7905 34.2516C21.515 34.4423 22.2395 34.633 22.9259 34.8046L21.8391 39.1897L24.5084 39.857L25.6142 35.4147C30.19 36.2726 33.6219 35.9294 35.0518 31.7921C36.2148 28.4747 34.9946 26.549 32.5923 25.2907C34.3654 24.8903 35.681 23.7273 36.0242 21.3631ZM29.904 29.9427C29.0842 33.2602 23.4788 31.468 21.6675 31.0104L23.1356 25.1191C24.9469 25.5767 30.781 26.4728 29.904 29.9427ZM30.7429 21.3059C29.9803 24.3374 25.3282 22.793 23.822 22.4117L25.1566 17.0733C26.6628 17.4546 31.5246 18.16 30.7429 21.3059Z" fill="white"/>
</g>
<defs>
<linearGradient id="paint0_linear_3221_43764" x1="24.3913" y1="-0.0117141" x2="24.3913" y2="48.8038" gradientUnits="userSpaceOnUse">
<stop stop-color="#F9AA4B"/>
<stop offset="1" stop-color="#F7931A"/>
</linearGradient>
<clipPath id="clip0_3221_43764">
<rect width="48.8087" height="48.8087" fill="white"/>
</clipPath>
</defs>
</svg>
