<svg width="49" height="49" viewBox="0 0 49 49" fill="none" xmlns="http://www.w3.org/2000/svg">
<g clip-path="url(#clip0_3221_43776)">
<circle cx="24.4044" cy="24.4044" r="24.4044" fill="#7F6EE9"/>
<path d="M24.9456 6.15354V6.17087C24.9629 6.2575 24.9629 6.36146 24.9629 6.46542V18.958C24.9456 19.0273 24.8936 19.0447 24.8416 19.0793C24.4777 19.2526 24.1312 19.4085 23.7673 19.5645C23.2649 19.7897 22.7451 20.0323 22.2426 20.2575L20.4233 21.0892C19.9208 21.3145 19.4183 21.5397 18.9332 21.765C18.3441 22.0422 17.7376 22.3021 17.1485 22.5793C16.646 22.8046 16.1436 23.0471 15.6238 23.2724C15.2079 23.463 14.7921 23.6363 14.3936 23.8268C14.3589 23.8442 14.3243 23.8615 14.2896 23.8615C14.2723 23.8615 14.2723 23.8615 14.2549 23.8442L14.7228 23.0645C15.6238 21.5744 16.5074 20.1016 17.4084 18.6115C18.3614 17.0174 19.3317 15.4234 20.2847 13.8293C21.1683 12.3565 22.0693 10.8838 22.953 9.41098C23.5941 8.33672 24.2525 7.26246 24.8936 6.1882C24.9109 6.15354 24.9282 6.13622 24.9282 6.10156H24.9456C24.9282 6.11889 24.9456 6.13622 24.9456 6.15354Z" fill="white"/>
<path d="M35.5825 23.8438L35.5999 23.8611L33.0528 25.3686L25.0479 30.0988C25.0132 30.1161 24.9785 30.1334 24.9612 30.1507C24.9092 30.1507 24.9092 30.0988 24.9092 30.0814V29.9255V19.2176C24.9092 19.1656 24.9092 19.0963 24.9266 19.0443C24.9439 18.975 24.9959 18.9923 25.0479 19.0096C25.2731 19.1136 25.5157 19.2176 25.7409 19.3215C26.4167 19.6334 27.0924 19.9453 27.7682 20.2398C28.3573 20.4997 28.9291 20.777 29.5182 21.0369C30.1073 21.2968 30.6964 21.574 31.2855 21.8339C31.788 22.0591 32.3078 22.3017 32.8102 22.527C33.3127 22.7522 33.8325 22.9948 34.335 23.22C34.7335 23.3933 35.132 23.5839 35.5306 23.7572C35.5306 23.8092 35.5479 23.8265 35.5825 23.8438Z" fill="#8A8DA7"/>
<path d="M24.944 40.9115C24.944 40.9288 24.9267 40.9461 24.9267 40.9635H24.9094C24.9094 40.9288 24.8747 40.9115 24.8574 40.8768C23.7831 39.3694 22.7089 37.8446 21.6346 36.3372C20.543 34.7951 19.4341 33.2357 18.3425 31.6936C17.2856 30.2035 16.2113 28.6961 15.1544 27.206C14.8772 26.8075 14.6 26.4263 14.3227 26.0278C14.3054 25.9931 14.2881 25.9758 14.2534 25.9238C14.3054 25.9238 14.3401 25.9585 14.3574 25.9758C15.8648 26.8595 17.3549 27.7431 18.8623 28.6268C20.595 29.6491 22.3104 30.6714 24.043 31.6936L24.9267 32.2134C24.9614 32.2481 24.9614 32.2828 24.9614 32.3174V40.6689C24.9614 40.7555 24.9614 40.8422 24.944 40.9115Z" fill="white"/>
<path d="M14.236 23.8783V23.861C14.7905 23.6184 15.3276 23.3585 15.8821 23.116C16.5925 22.7867 17.3029 22.4749 18.0133 22.1457C18.5504 21.9031 19.1048 21.6432 19.642 21.4006C20.439 21.0367 21.2187 20.6902 22.0157 20.3263C22.5529 20.0838 23.09 19.8412 23.6445 19.5813C24.0256 19.408 24.4242 19.2348 24.8054 19.0615C24.84 19.0442 24.892 19.0268 24.9093 18.9922C24.9266 18.9922 24.9266 19.0095 24.9093 19.0268V30.0293C24.9093 30.0813 24.892 30.1333 24.9266 30.168C24.892 30.2199 24.8573 30.168 24.84 30.1506C24.6841 30.064 24.5281 29.9774 24.3722 29.8734C21.0281 27.8981 17.6667 25.9056 14.3227 23.9303C14.3053 23.913 14.2707 23.8957 14.236 23.8783Z" fill="#C5C8D9"/>
<path d="M35.5479 25.9238H35.5653C35.5653 25.9585 35.5306 25.9931 35.5133 26.0278C32.3252 30.5154 29.137 35.0204 25.9489 39.508C25.6197 39.9758 25.2732 40.4437 24.944 40.9115C24.9266 40.8942 24.9266 40.8768 24.9266 40.8595V40.7555V32.3521V32.1961C25.6544 31.7629 26.3648 31.3471 27.0925 30.9139C29.8994 29.2506 32.7064 27.6045 35.496 25.9412C35.5133 25.9585 35.5306 25.9412 35.5479 25.9238Z" fill="#C5C8D9"/>
<path d="M24.9267 19.0264V18.9917V18.8878V6.30854C24.9267 6.25656 24.9094 6.2219 24.944 6.16992C28.4613 12.009 31.9787 17.8308 35.4787 23.67C35.5133 23.7219 35.5653 23.7912 35.5826 23.8605C35.3401 23.7739 35.1148 23.6526 34.8896 23.5487C34.6123 23.4274 34.3178 23.2888 34.0406 23.1675C33.8673 23.0808 33.6767 23.0115 33.5034 22.9249C33.2089 22.7863 32.9143 22.665 32.6198 22.5264C32.4465 22.4571 32.2732 22.3704 32.1 22.2838L30.9564 21.764C30.7658 21.6774 30.5752 21.5907 30.3673 21.5041L29.5356 21.1402C29.3623 21.0709 29.1891 20.9843 29.0158 20.8977L27.8722 20.3779C27.6816 20.2912 27.491 20.2046 27.2831 20.118L26.4514 19.7541C26.2608 19.6675 26.0876 19.5808 25.897 19.4942C25.5678 19.3383 25.2386 19.1823 24.892 19.0437C24.944 19.0264 24.9267 19.0264 24.9267 19.0264Z" fill="#C5C8D9"/>
</g>
<defs>
<clipPath id="clip0_3221_43776">
<rect width="48.8087" height="48.8087" fill="white"/>
</clipPath>
</defs>
</svg>
