<svg width="109" height="27" viewBox="0 0 109 27" fill="none" xmlns="http://www.w3.org/2000/svg">
<g clip-path="url(#clip0_3221_44236)">
<path d="M28.5965 9.30742H39.6153V11.3265H35.2834V22.6788H32.8997V11.3265H28.5864V9.30664H28.5958L28.5965 9.30742ZM39.145 12.9964H41.1819V14.8654H41.22C41.2876 14.6011 41.412 14.3461 41.5947 14.1012C41.9854 13.5746 42.5141 13.1664 43.1224 12.9218C43.4313 12.7991 43.7603 12.7348 44.0927 12.7321C44.3415 12.7321 44.5249 12.7422 44.6214 12.7515C44.717 12.7609 44.8126 12.7795 44.9183 12.7888V14.846C44.7623 14.8187 44.6055 14.7966 44.448 14.7799C44.2916 14.7614 44.1343 14.7521 43.9768 14.7519C43.6114 14.7519 43.2663 14.8273 42.9397 14.9696C42.6132 15.1103 42.3341 15.3272 42.0946 15.6017C41.8391 15.9085 41.6435 16.2606 41.5178 16.6396C41.3739 17.0547 41.3063 17.5259 41.3063 18.0646V22.6695H39.1357V12.9964H39.145ZM54.9 22.6796H52.7675V21.3307H52.7286C52.4596 21.8205 52.0662 22.2077 51.5376 22.5008C51.0089 22.7931 50.4709 22.9439 49.9236 22.9439C48.6268 22.9439 47.6845 22.6329 47.1092 22.0009C46.5323 21.368 46.2439 20.4149 46.2439 19.1406V12.9972H48.4153V18.933C48.4153 19.7828 48.5786 20.3869 48.9152 20.7359C49.2417 21.085 49.7121 21.2646 50.3076 21.2646C50.7687 21.2646 51.1434 21.1985 51.4505 21.0563C51.7584 20.9155 52.0079 20.7359 52.1906 20.4996C52.3826 20.2734 52.5171 19.9904 52.6042 19.6693C52.6897 19.3482 52.7286 18.9999 52.7286 18.6221V13.0065H54.9V22.6796ZM58.5984 19.5752C58.666 20.1972 58.9055 20.6325 59.3191 20.8868C59.7412 21.1324 60.2411 21.2646 60.8273 21.2646C61.0295 21.2646 61.2596 21.2452 61.5193 21.2172C61.7781 21.1892 62.0277 21.1231 62.2493 21.0384C62.4794 20.9529 62.6613 20.8207 62.8153 20.6512C62.9599 20.4809 63.0267 20.264 63.0174 19.9904C63.0162 19.8634 62.9882 19.738 62.9352 19.6226C62.8823 19.5071 62.8057 19.4041 62.7103 19.3202C62.5175 19.1414 62.278 19.0092 61.9795 18.8957C61.6469 18.7805 61.3066 18.689 60.961 18.6221C60.577 18.5466 60.1929 18.4619 59.7995 18.3764C59.4032 18.2906 59.0118 18.1834 58.6271 18.0553C58.2663 17.9397 57.926 17.7678 57.6188 17.5461C57.3194 17.3371 57.0753 17.0586 56.9074 16.7344C56.7255 16.404 56.6384 15.9982 56.6384 15.5076C56.6384 14.9789 56.7729 14.5451 57.0326 14.1859C57.2945 13.8298 57.6326 13.5365 58.0223 13.3276C58.441 13.1062 58.8912 12.9502 59.3572 12.865C59.847 12.7803 60.3181 12.7329 60.7597 12.7329C61.2689 12.7329 61.7587 12.7896 62.2205 12.8938C62.6677 12.9898 63.0938 13.1657 63.4784 13.4131C63.8532 13.6487 64.1602 13.9605 64.4106 14.3383C64.6601 14.7154 64.8141 15.178 64.8809 15.7152H62.6139C62.5082 15.2059 62.2773 14.8569 61.9033 14.6866C61.5286 14.5078 61.0963 14.4223 60.6159 14.4223C60.4619 14.4223 60.2792 14.4316 60.0685 14.4604C59.8655 14.4874 59.6657 14.5348 59.4722 14.6019C59.2954 14.667 59.1348 14.7699 59.0019 14.9035C58.9373 14.9732 58.8871 15.055 58.8542 15.1441C58.8212 15.2332 58.8062 15.3279 58.8098 15.4228C58.8098 15.6872 58.9055 15.8948 59.0882 16.0549C59.2709 16.2158 59.5111 16.3472 59.8089 16.4607C60.1066 16.5649 60.4433 16.659 60.8273 16.7344C61.2114 16.8098 61.6048 16.8953 62.009 16.9801C62.4024 17.0648 62.7865 17.1783 63.1713 17.3004C63.5554 17.4232 63.8913 17.5935 64.1898 17.8104C64.4876 18.0281 64.7278 18.2916 64.9097 18.6127C65.0924 18.933 65.1888 19.3389 65.1888 19.8108C65.1888 20.3861 65.0543 20.8681 64.7845 21.2739C64.5163 21.6704 64.1704 22.0001 63.7474 22.2458C63.3047 22.5008 62.825 22.6855 62.3255 22.7931C61.8173 22.9049 61.2986 22.9617 60.7783 22.9626C60.1957 22.9691 59.6146 22.8993 59.0501 22.755C58.5214 22.6135 58.0604 22.4059 57.6763 22.133C57.2967 21.8572 56.9846 21.4989 56.7636 21.085C56.5428 20.6699 56.4269 20.17 56.4083 19.5939H58.5984V19.5752ZM65.7649 12.998H67.4077V10.0903H69.5791V12.998H71.5383V14.5918H69.5799V19.7641C69.5799 19.9896 69.5892 20.1793 69.6086 20.3488C69.6273 20.5097 69.6755 20.6512 69.7431 20.7639C69.8166 20.8824 69.9282 20.9723 70.0595 21.0189C70.2042 21.0757 70.3861 21.1045 70.6364 21.1045C70.7896 21.1045 70.9435 21.1045 71.0975 21.0944C71.2514 21.085 71.4045 21.0664 71.5585 21.0283V22.6796C71.3182 22.7083 71.078 22.727 70.8572 22.7558C70.6244 22.7826 70.3902 22.795 70.156 22.7931C69.5799 22.7931 69.1188 22.7363 68.7721 22.6329C68.4269 22.5288 68.1478 22.3686 67.9558 22.161C67.7536 21.9534 67.6292 21.6984 67.5523 21.3867C67.4774 21.0361 67.4358 20.6792 67.4279 20.3208V14.6096H65.7851V12.9956H65.7657L65.7649 12.998ZM73.0753 12.998H75.1316V14.3088H75.1705C75.4768 13.7428 75.8998 13.3463 76.4471 13.1014C77.0065 12.8526 77.6129 12.727 78.2251 12.7329C79.0026 12.7329 79.6751 12.865 80.2519 13.1387C80.828 13.403 81.3085 13.7715 81.6925 14.2427C82.0766 14.7154 82.3557 15.2619 82.5477 15.8854C82.7434 16.534 82.8406 17.2083 82.8362 17.8858C82.8362 18.5373 82.7499 19.1686 82.5765 19.7735C82.4174 20.3572 82.1537 20.9072 81.7983 21.3968C81.449 21.8683 80.9953 22.2525 80.4727 22.5194C79.9347 22.8024 79.3104 22.9439 78.5804 22.9439C78.2613 22.9438 77.9429 22.9155 77.6288 22.8592C77.3155 22.8025 77.0096 22.7107 76.7169 22.5855C76.4261 22.4644 76.1541 22.3023 75.9091 22.1043C75.6673 21.9112 75.4568 21.682 75.2848 21.4248H75.2459V26.2566H73.0753V12.9964V12.998ZM80.6648 17.8477C80.6648 17.4139 80.6072 16.9894 80.4922 16.5743C80.3857 16.1813 80.2098 15.8106 79.9728 15.4796C79.7478 15.165 79.4561 14.904 79.1184 14.7154C78.7557 14.5191 78.3491 14.4182 77.9367 14.4223C77.024 14.4223 76.332 14.7332 75.871 15.3568C75.41 15.9795 75.1791 16.8106 75.1791 17.8477C75.1791 18.3391 75.2374 18.7915 75.3618 19.2067C75.4862 19.6219 75.6595 19.981 75.9091 20.2827C76.1501 20.5851 76.4378 20.8207 76.7744 20.9902C77.1102 21.1698 77.5044 21.2545 77.946 21.2545C78.4459 21.2545 78.8587 21.1511 79.2047 20.9529C79.5397 20.7601 79.8283 20.496 80.0498 20.1793C80.2706 19.8582 80.4346 19.4998 80.5303 19.094C80.6186 18.6847 80.6637 18.2664 80.6648 17.8477ZM84.4976 9.30742H86.669V11.3272H84.4976V9.30742ZM84.4976 12.9972H86.669V22.6796H84.4976V12.9972ZM88.6095 9.30742H90.7809V22.6796H88.6095V9.30742ZM97.4383 22.9439C96.6499 22.9439 95.9487 22.8117 95.3345 22.5575C94.7457 22.316 94.2127 21.9561 93.7687 21.5002C93.337 21.035 93.0064 20.4855 92.7977 19.8862C92.5691 19.2247 92.4555 18.5289 92.4618 17.8291C92.4618 17.0928 92.5769 16.4141 92.7977 15.7906C93.0065 15.1916 93.3371 14.6423 93.7687 14.1774C94.1908 13.7241 94.7195 13.375 95.3345 13.12C95.9487 12.865 96.6499 12.7329 97.4383 12.7329C98.2258 12.7329 98.9271 12.865 99.542 13.12C100.131 13.3615 100.664 13.7214 101.108 14.1774C101.539 14.6421 101.87 15.1915 102.078 15.7906C102.299 16.4141 102.414 17.0928 102.414 17.8291C102.414 18.5754 102.299 19.2635 102.078 19.8862C101.87 20.4856 101.54 21.0352 101.108 21.5002C100.685 21.9534 100.157 22.3025 99.542 22.5575C98.9271 22.8117 98.2258 22.9439 97.4383 22.9439ZM97.4383 21.2545C97.9187 21.2545 98.3409 21.1511 98.6962 20.9529C99.0425 20.7601 99.3413 20.4923 99.5708 20.1692C99.8009 19.8489 99.9642 19.4804 100.08 19.0753C100.186 18.6687 100.243 18.2543 100.243 17.8291C100.243 17.4139 100.186 17.0081 100.08 16.5929C99.981 16.1991 99.8082 15.8277 99.5708 15.4983C99.3409 15.1782 99.042 14.9138 98.6962 14.7247C98.3409 14.5264 97.9187 14.4223 97.4383 14.4223C96.9578 14.4223 96.5349 14.5264 96.1796 14.7247C95.8361 14.9167 95.538 15.1806 95.3057 15.4983C95.0716 15.8296 94.8991 16.2004 94.7965 16.5929C94.6901 16.9964 94.635 17.4118 94.6324 17.8291C94.6324 18.2543 94.6907 18.6687 94.7965 19.0753C94.9022 19.4804 95.0748 19.8489 95.3057 20.1692C95.5358 20.4903 95.8243 20.7546 96.1796 20.9529C96.5349 21.1604 96.9578 21.2545 97.4383 21.2545ZM103.048 12.998H104.691V10.0903H106.863V12.998H108.822V14.5918H106.863V19.7641C106.863 19.9896 106.872 20.1793 106.891 20.3488C106.91 20.5097 106.958 20.6512 107.026 20.7639C107.099 20.8825 107.211 20.9725 107.342 21.0189C107.487 21.0757 107.669 21.1045 107.919 21.1045C108.072 21.1045 108.226 21.1045 108.38 21.0944C108.534 21.085 108.687 21.0664 108.841 21.0283V22.6796C108.601 22.7083 108.361 22.727 108.14 22.7558C107.907 22.7826 107.673 22.795 107.439 22.7931C106.863 22.7931 106.401 22.7363 106.055 22.6329C105.71 22.5288 105.43 22.3686 105.238 22.161C105.037 21.9534 104.912 21.6984 104.835 21.3867C104.76 21.0361 104.719 20.6792 104.711 20.3208V14.6096H103.068V12.9956H103.048V12.998Z" fill="#1C1C1C"/>
<path d="M26.0607 9.30531H16.1085L13.0345 0L9.94954 9.30609L-0.00183105 9.29598L8.058 15.0522L4.97463 24.3474L13.0345 18.6005L21.085 24.3474L18.0109 15.0522L26.0607 9.30531Z" fill="#04DA8D"/>
<path d="M18.702 17.1573L18.0101 15.0527L13.0344 18.601L18.702 17.1573Z" fill="#126849"/>
</g>
<defs>
<clipPath id="clip0_3221_44236">
<rect width="108.843" height="26.4333" fill="white" transform="translate(-0.00183105)"/>
</clipPath>
</defs>
</svg>
