<svg width="199" height="54" viewBox="0 0 199 54" fill="none" xmlns="http://www.w3.org/2000/svg">
<path d="M5.44451 43.4976L0.554688 39.6401V52.3768C0.554688 52.9895 1.05133 53.4861 1.66398 53.4861H196.899C197.512 53.4861 198.008 52.9895 198.008 52.3769V7.29692L190.224 13.1427C189.757 13.4932 189.098 13.422 188.717 12.9798L181.36 4.44047C181.021 4.04761 180.456 3.94169 179.998 4.18543L178.244 5.11947C177.789 5.36157 177.228 5.25885 176.888 4.87146L173.436 0.932623C173.085 0.531158 172.497 0.437215 172.037 0.709041L169.07 2.46444C168.928 2.54872 168.768 2.60006 168.604 2.61469L156.281 3.70832C155.865 3.74528 155.504 4.01325 155.349 4.40145L149.194 19.7951C148.845 20.6691 147.634 20.7381 147.188 19.9095L141.339 9.05609C141.146 8.69696 140.771 8.47303 140.363 8.47303H134.602C134.093 8.47303 133.65 8.81926 133.526 9.31289L131.296 18.2182C131.173 18.7118 130.729 19.0581 130.22 19.0581H126.659C126.519 19.0581 126.381 19.0318 126.252 18.9807L121.384 17.0605C120.868 16.8572 120.282 17.0653 120.01 17.5479L113.871 28.4455C113.524 29.0615 112.697 29.2 112.168 28.7307L110.201 26.9852C109.688 26.5298 108.889 26.6447 108.525 27.2263L106.806 29.971C106.382 30.6487 105.402 30.6686 104.951 30.0087L95.7386 16.5427C95.2541 15.8346 94.1835 15.921 93.8189 16.6976L91.6915 21.229C91.4784 21.6829 90.9872 21.9375 90.4935 21.8498L85.5152 20.9662C85.0337 20.8807 84.5531 21.1206 84.3319 21.5567L79.026 32.0212C78.8493 32.3698 78.5021 32.5997 78.1122 32.6263L70.6544 33.1354C70.3209 33.1582 70.0155 33.3302 69.823 33.6035L64.6521 40.9462C64.1508 41.6581 63.0622 41.5413 62.7233 40.7392L60.1525 34.6549C59.85 33.939 58.9242 33.748 58.3631 34.2858L44.0327 48.0215C43.4976 48.5345 42.6196 48.3883 42.2795 47.7297L36.5801 36.6934C36.1825 35.9236 35.0955 35.8863 34.646 36.627L31.2455 42.2319C31.109 42.4569 30.897 42.626 30.6474 42.709L26.7063 44.0207C26.157 44.2035 25.5595 43.9332 25.3342 43.3999L22.044 35.6131C21.8705 35.2025 21.468 34.9356 21.0222 34.9356H18.3363C17.9874 34.9356 17.6589 34.7715 17.4494 34.4926L14.8878 31.0824C14.3917 30.4221 13.3738 30.516 13.007 31.2559L7.12542 43.1194C6.81242 43.7508 5.99775 43.9341 5.44451 43.4976Z" fill="url(#paint0_linear_3221_43794)"/>
<path d="M0.554688 39.6401L5.44451 43.4976C5.99775 43.9341 6.81242 43.7508 7.12542 43.1194L13.007 31.2559C13.3739 30.516 14.3917 30.4221 14.8878 31.0824L17.4494 34.4926C17.6589 34.7715 17.9874 34.9356 18.3363 34.9356H21.0222C21.468 34.9356 21.8705 35.2025 22.044 35.6131L25.3342 43.3999C25.5595 43.9332 26.157 44.2035 26.7063 44.0207L30.6474 42.709C30.897 42.626 31.109 42.4569 31.2455 42.2319L34.6461 36.627C35.0955 35.8863 36.1825 35.9236 36.5801 36.6934L42.2795 47.7297C42.6196 48.3883 43.4976 48.5345 44.0327 48.0215L58.3631 34.2858C58.9242 33.748 59.85 33.939 60.1525 34.6549L62.7233 40.7392C63.0622 41.5413 64.1508 41.6581 64.6521 40.9462L69.823 33.6035C70.0155 33.3302 70.3209 33.1582 70.6544 33.1354L78.1122 32.6263C78.5021 32.5997 78.8493 32.3698 79.026 32.0212L84.3319 21.5567C84.5531 21.1206 85.0337 20.8807 85.5152 20.9662L90.4935 21.8498C90.9872 21.9375 91.4784 21.6829 91.6915 21.229L93.8189 16.6976C94.1835 15.9209 95.2541 15.8346 95.7386 16.5427L104.951 30.0087C105.402 30.6686 106.382 30.6487 106.806 29.971L108.525 27.2263C108.889 26.6447 109.688 26.5298 110.201 26.9852L112.168 28.7307C112.697 29.2 113.524 29.0615 113.871 28.4455L120.01 17.5479C120.282 17.0653 120.868 16.8572 121.384 17.0605L126.252 18.9807C126.381 19.0318 126.519 19.0581 126.659 19.0581H130.22C130.729 19.0581 131.173 18.7118 131.296 18.2182L133.526 9.31289C133.65 8.81926 134.093 8.47303 134.602 8.47303H140.363C140.771 8.47303 141.146 8.69696 141.339 9.05609L147.188 19.9095C147.634 20.7381 148.845 20.6691 149.194 19.7951L155.349 4.40145C155.504 4.01325 155.865 3.74528 156.281 3.70832L168.604 2.61469C168.768 2.60006 168.928 2.54872 169.07 2.46444L172.037 0.709041C172.497 0.437215 173.085 0.531158 173.436 0.932623L176.888 4.87146C177.228 5.25885 177.789 5.36157 178.244 5.11947L179.998 4.18543C180.456 3.94169 181.021 4.0476 181.36 4.44047L188.717 12.9798C189.098 13.422 189.757 13.4932 190.224 13.1427L198.008 7.29692" stroke="#2A9D90" stroke-width="1.10929" stroke-linecap="round"/>
<defs>
<linearGradient id="paint0_linear_3221_43794" x1="99.2815" y1="0.240234" x2="99.2815" y2="53.4861" gradientUnits="userSpaceOnUse">
<stop offset="0.260417" stop-color="#2BC155" stop-opacity="0.4"/>
<stop offset="1" stop-color="#2BC155" stop-opacity="0"/>
</linearGradient>
</defs>
</svg>
