<svg width="198" height="54" viewBox="0 0 198 54" fill="none" xmlns="http://www.w3.org/2000/svg">
<path d="M5.85744 48.5893L0.554733 45.422V52.1366C0.554733 52.7493 1.05138 53.2459 1.66402 53.2459H196.899C197.512 53.2459 198.008 52.7493 198.008 52.1366V27.4923L194.837 34.312C194.731 34.54 194.55 34.7252 194.325 34.8373L189.741 37.1189C189.163 37.4068 188.462 37.1416 188.219 36.543L183.614 25.1961C183.444 24.7777 183.037 24.504 182.586 24.504H178.767C178.304 24.504 177.889 24.2159 177.727 23.7815L175.288 17.2246C175 16.451 173.998 16.2515 173.436 16.8559L171.654 18.7713C171.445 18.9969 171.15 19.1251 170.842 19.1251H161.029C160.785 19.1251 160.547 19.0444 160.353 18.8956L156.959 16.2892C156.437 15.8882 155.683 16.0276 155.338 16.5886L149.819 25.5793C149.339 26.3624 148.169 26.2549 147.839 25.3974L142.122 10.5441C142.027 10.2964 141.846 10.0911 141.612 9.96544L135.628 6.74873C135.417 6.63544 135.176 6.59333 134.939 6.62866L127.942 7.67344C127.545 7.73279 127.146 7.57256 126.901 7.25458L122.164 1.12497C121.723 0.553683 120.862 0.549628 120.415 1.11673L114.216 8.98548C113.755 9.57023 112.86 9.5442 112.434 8.93364L110.892 6.72303C110.443 6.0793 109.486 6.09277 109.055 6.74888L104.327 13.9504C103.861 14.6603 102.803 14.6046 102.414 13.8496L96.3565 2.09146C95.927 1.25775 94.721 1.30009 94.351 2.16188L88.8967 14.8674C88.7217 15.2749 88.3209 15.5391 87.8774 15.5391H84.6538C84.2185 15.5391 83.8233 15.7938 83.6436 16.1903L75.3632 34.4517C75.2997 34.5918 75.2077 34.7172 75.0932 34.8198L65.2864 43.6061C64.8857 43.9651 64.2852 43.9848 63.8618 43.6529L59.6972 40.3881C59.4204 40.1711 59.0571 40.0982 58.718 40.1917L51.242 42.2527C50.8391 42.3637 50.5328 42.6918 50.4497 43.1014L49.4314 48.1193C49.3265 48.6364 48.8719 49.008 48.3443 49.008H42.4099C42.0939 49.008 41.7929 48.8732 41.5825 48.6375L34.6962 40.9254C34.2695 40.4475 33.5279 40.4294 33.0784 40.8858L24.5942 49.5007C24.1996 49.9014 23.5676 49.9434 23.1235 49.5985L14.6273 43.0014C14.2039 42.6727 13.606 42.6937 13.2068 43.0514L7.16649 48.4631C6.80479 48.7872 6.27436 48.8383 5.85744 48.5893Z" fill="url(#paint0_linear_3221_43766)"/>
<path d="M0.554733 45.422L5.85744 48.5893C6.27436 48.8383 6.80479 48.7872 7.16649 48.4631L13.2068 43.0514C13.606 42.6937 14.2039 42.6727 14.6273 43.0014L23.1235 49.5986C23.5676 49.9434 24.1996 49.9014 24.5942 49.5008L33.0784 40.8859C33.5279 40.4294 34.2695 40.4475 34.6962 40.9254L41.5825 48.6375C41.7929 48.8732 42.0939 49.008 42.4099 49.008H48.3443C48.8719 49.008 49.3265 48.6364 49.4314 48.1193L50.4497 43.1014C50.5328 42.6918 50.8391 42.3637 51.242 42.2527L58.718 40.1917C59.0571 40.0982 59.4204 40.1711 59.6972 40.3881L63.8618 43.6529C64.2852 43.9848 64.8857 43.9651 65.2864 43.6061L75.0932 34.8198C75.2077 34.7172 75.2997 34.5918 75.3632 34.4517L83.6435 16.1903C83.8233 15.7938 84.2185 15.5391 84.6538 15.5391H87.8774C88.3209 15.5391 88.7217 15.2749 88.8967 14.8674L94.351 2.16188C94.721 1.30009 95.927 1.25775 96.3565 2.09146L102.414 13.8496C102.803 14.6046 103.861 14.6603 104.327 13.9504L109.055 6.74887C109.486 6.09276 110.443 6.0793 110.892 6.72303L112.434 8.93364C112.86 9.5442 113.755 9.57023 114.216 8.98548L120.415 1.11673C120.862 0.549629 121.723 0.553683 122.164 1.12497L126.901 7.25458C127.146 7.57256 127.545 7.73279 127.942 7.67344L134.939 6.62866C135.176 6.59333 135.417 6.63545 135.628 6.74873L141.612 9.96544C141.846 10.0911 142.027 10.2964 142.122 10.5441L147.839 25.3974C148.169 26.2549 149.339 26.3624 149.819 25.5793L155.338 16.5886C155.683 16.0276 156.437 15.8882 156.959 16.2892L160.353 18.8956C160.547 19.0444 160.785 19.1251 161.029 19.1251H170.842C171.15 19.1251 171.445 18.9969 171.654 18.7713L173.436 16.856C173.998 16.2515 175 16.451 175.288 17.2246L177.727 23.7815C177.889 24.2159 178.304 24.504 178.767 24.504H182.586C183.037 24.504 183.444 24.7777 183.614 25.1961L188.219 36.543C188.462 37.1416 189.163 37.4068 189.741 37.1189L194.241 34.8792C194.516 34.742 194.723 34.4966 194.81 34.2016L196.833 27.3836" stroke="#2A9D90" stroke-width="1.10929" stroke-linecap="round"/>
<defs>
<linearGradient id="paint0_linear_3221_43766" x1="99.2815" y1="0" x2="99.2815" y2="53.2459" gradientUnits="userSpaceOnUse">
<stop offset="0.260417" stop-color="#2BC155" stop-opacity="0.4"/>
<stop offset="1" stop-color="#2BC155" stop-opacity="0"/>
</linearGradient>
</defs>
</svg>
