<svg width="198" height="54" viewBox="0 0 198 54" fill="none" xmlns="http://www.w3.org/2000/svg">
<path d="M7.03058 47.789H0.554657V52.1366C0.554657 52.7493 1.05129 53.2459 1.66393 53.2459H196.899C197.512 53.2459 198.008 52.7493 198.008 52.1366V12.9311L189.787 31.7027C189.355 32.6897 187.911 32.5431 187.686 31.4893L185.128 19.505C184.969 18.7621 184.128 18.3948 183.475 18.7838L179.115 21.383C178.605 21.687 177.946 21.5355 177.62 21.0392L174.108 15.6939C173.736 15.1272 172.947 15.0241 172.442 15.476L160.711 25.9654C160.397 26.2466 159.95 26.3251 159.559 26.1679L156.949 25.12C156.411 24.9043 155.798 25.138 155.541 25.6568L149.264 38.3234C148.843 39.1719 147.621 39.1373 147.249 38.2665L142.234 26.5215C142.207 26.457 142.173 26.3952 142.134 26.337L135.807 16.9522C135.397 16.344 134.52 16.2941 134.044 16.8519L130.802 20.6475C130.449 21.0609 129.848 21.1576 129.384 20.8758L121.252 15.947C120.62 15.5636 119.796 15.8949 119.606 16.6096L117.041 26.2179C117.005 26.3544 116.943 26.4827 116.858 26.5958L113.568 30.9993C113.158 31.5479 112.354 31.5977 111.879 31.1039L107.659 26.7115C107.481 26.526 107.244 26.4082 106.988 26.3782L103.26 25.9417C102.845 25.893 102.492 25.6143 102.348 25.2212L96.0475 8.00734C95.7525 7.20133 94.6932 7.02131 94.1485 7.68464L90.6236 11.9774C90.0761 12.6442 89.0104 12.4582 88.7212 11.6453L85.4191 2.36522C85.0961 1.4575 83.849 1.36479 83.3953 2.21477L77.6888 12.9064C77.4959 13.2677 77.1197 13.4934 76.7102 13.4934H68.3604C67.9929 13.4934 67.6493 13.6754 67.4428 13.9793L64.4893 18.327C64.0492 18.975 63.0943 18.975 62.6541 18.327L60.6995 15.4497C60.1714 14.6722 58.9762 14.8628 58.716 15.766L49.3196 48.3865C49.224 48.7187 48.979 48.9872 48.657 49.1129L42.8839 51.3663C42.3603 51.5707 41.7665 51.3511 41.5019 50.8553L37.1944 42.7848C36.8671 42.1717 36.0631 42.0071 35.5212 42.4422L25.0839 50.823C24.5165 51.2786 23.6715 51.0737 23.3758 50.4088L21.0205 45.1136C20.9805 45.0235 20.9286 44.9392 20.8663 44.8629L14.3069 36.8275C13.7821 36.1846 12.7631 36.3245 12.431 37.085L8.04717 47.1237C7.87068 47.5278 7.47157 47.789 7.03058 47.789Z" fill="url(#paint0_linear_3221_43781)"/>
<path d="M0.554657 47.789H7.03058C7.47157 47.789 7.87068 47.5278 8.04717 47.1237L12.431 37.085C12.7631 36.3245 13.7821 36.1846 14.3069 36.8275L20.8663 44.8629C20.9286 44.9392 20.9805 45.0235 21.0205 45.1136L23.3758 50.4088C23.6715 51.0737 24.5165 51.2786 25.0839 50.823L35.5212 42.4422C36.0631 42.0071 36.8671 42.1717 37.1944 42.7848L41.5019 50.8553C41.7665 51.3511 42.3603 51.5707 42.8839 51.3663L48.657 49.1129C48.979 48.9872 49.224 48.7187 49.3196 48.3866L58.716 15.766C58.9762 14.8628 60.1714 14.6722 60.6995 15.4497L62.6541 18.327C63.0943 18.975 64.0492 18.975 64.4893 18.327L67.4428 13.9793C67.6493 13.6754 67.9929 13.4934 68.3604 13.4934H76.7102C77.1197 13.4934 77.4959 13.2677 77.6888 12.9064L83.3953 2.21477C83.849 1.36479 85.0961 1.4575 85.4191 2.36522L88.7212 11.6453C89.0104 12.4582 90.0761 12.6442 90.6236 11.9774L94.1485 7.68464C94.6932 7.02131 95.7525 7.20133 96.0475 8.00734L102.348 25.2212C102.492 25.6144 102.845 25.893 103.26 25.9417L106.988 26.3782C107.244 26.4082 107.481 26.526 107.659 26.7115L111.879 31.1039C112.354 31.5977 113.158 31.5479 113.568 30.9993L116.858 26.5959C116.943 26.4827 117.005 26.3544 117.041 26.2179L119.606 16.6096C119.796 15.8949 120.62 15.5636 121.252 15.947L129.384 20.8758C129.848 21.1576 130.449 21.0609 130.802 20.6475L134.044 16.8519C134.52 16.2941 135.397 16.344 135.807 16.9522L142.134 26.337C142.173 26.3952 142.207 26.457 142.234 26.5215L147.249 38.2665C147.621 39.1373 148.843 39.1719 149.264 38.3234L155.541 25.6568C155.798 25.138 156.411 24.9043 156.949 25.12L159.559 26.1679C159.95 26.3251 160.397 26.2466 160.711 25.9654L172.442 15.476C172.947 15.0241 173.736 15.1272 174.108 15.6939L177.62 21.0392C177.946 21.5355 178.605 21.687 179.115 21.383L183.475 18.7838C184.128 18.3948 184.969 18.7621 185.128 19.505L187.626 31.2043C187.856 32.2837 189.35 32.4009 189.746 31.3707L196.833 12.9311" stroke="#FA2256" stroke-width="1.10929" stroke-linecap="round"/>
<defs>
<linearGradient id="paint0_linear_3221_43781" x1="99.2814" y1="0" x2="99.2814" y2="53.2459" gradientUnits="userSpaceOnUse">
<stop offset="0.104167" stop-color="#FA2256" stop-opacity="0.38"/>
<stop offset="1" stop-color="#FA2256" stop-opacity="0"/>
</linearGradient>
</defs>
</svg>
