<svg width="56" height="56" viewBox="0 0 56 56" fill="none" xmlns="http://www.w3.org/2000/svg">
<path d="M28.0001 0C12.5362 0 0.00012207 12.5361 0.00012207 28C0.00012207 43.4639 12.5362 56 28.0001 56C43.4641 56 56.0001 43.4639 56.0001 28C55.9824 12.5434 43.4567 0.0177002 28.0001 0ZM38.0002 42.0003H22.0003C20.8956 42.0003 20.0002 41.1049 20.0002 40.0002C20.0002 39.9056 20.0069 39.811 20.0204 39.717L21.5255 29.1792L18.4853 29.9397C18.3266 29.98 18.1637 30.0001 18.0001 30.0001C16.8953 29.9989 16.0012 29.1029 16.0018 27.9982C16.003 27.0814 16.6268 26.2831 17.5161 26.0597L22.1358 24.9049L24.02 11.7164C24.1763 10.6226 25.1894 9.86332 26.2832 10.0196C27.377 10.1758 28.1362 11.189 27.98 12.2828L26.3259 23.8575L33.5153 22.06C34.5852 21.7872 35.6735 22.4336 35.9457 23.5035C36.2185 24.5735 35.5722 25.6617 34.5022 25.9346C34.4961 25.9358 34.49 25.9376 34.4839 25.9388L25.7143 28.1312L24.305 38H38.0002C39.1049 38 40.0003 38.8954 40.0003 40.0002C40.0003 41.1043 39.1049 42.0003 38.0002 42.0003Z" fill="#5F5F5F"/>
</svg>
