<svg width="56" height="56" viewBox="0 0 56 56" fill="none" xmlns="http://www.w3.org/2000/svg">
<path d="M28.0001 0C12.5362 0 0.00012207 12.5361 0.00012207 28C0.00012207 43.4639 12.5362 56 28.0001 56C43.4641 56 56.0001 43.4639 56.0001 28C55.9824 12.5434 43.4567 0.0177002 28.0001 0ZM41.7386 24.9202C40.6973 25.84 39.4949 26.559 38.1918 27.0399C37.2696 27.3384 36.4261 27.8395 35.7229 28.5072C34.7897 30.7295 35.3628 33.2997 37.153 34.9153C37.214 34.9763 37.2714 35.0417 37.3245 35.1106C39.5767 37.9964 39.3478 42.1022 36.7892 44.72C33.9566 47.5478 29.3685 47.5478 26.5353 44.72C24.7427 42.5685 24.1567 39.6578 24.977 36.9801C25.1754 35.4329 24.6462 33.8802 23.5433 32.7766C22.449 31.7219 20.9316 31.2269 19.4259 31.4326C16.7482 32.2517 13.8381 31.664 11.6878 29.8707C8.85636 27.043 8.85392 22.4555 11.6817 19.6247C11.6835 19.6223 11.686 19.6204 11.6878 19.6186C14.3044 17.0582 18.4121 16.8293 21.2972 19.0833C23.3169 21.0792 26.3088 21.7512 27.8988 20.6812C28.569 19.9799 29.0707 19.1358 29.3673 18.2124C29.8483 16.9105 30.5661 15.7093 31.4846 14.6693C34.3161 11.8378 38.9059 11.8378 41.7374 14.6686C44.5694 17.5001 44.5694 22.0899 41.7386 24.9214V24.9202Z" fill="#2B98D6"/>
<path d="M33.6879 17.7467C33.1457 18.443 32.7169 19.2205 32.4185 20.0508C31.8745 21.6878 30.8702 23.1337 29.5268 24.2157C25.7386 26.2499 21.0547 25.4633 18.1387 22.3034C16.8512 21.4397 15.1348 21.5901 14.017 22.6649C12.7555 23.9246 12.7543 25.9691 14.014 27.2306C14.0152 27.2312 14.0158 27.2324 14.017 27.2331C14.7776 27.9906 15.8608 28.1107 18.1739 27.6873C18.6427 27.6024 19.1182 27.5594 19.5949 27.5594C21.9123 27.597 24.129 28.5128 25.7975 30.1212C27.8189 32.1427 28.7565 35.0066 28.3211 37.8323C27.8905 40.1401 28.0106 41.2269 28.7717 41.9893C30.0338 43.249 32.0777 43.249 33.3398 41.9893C34.4302 40.8242 34.5382 39.049 33.5963 37.7608C30.5166 34.8392 29.7754 30.2164 31.7878 26.4786C32.8698 25.1358 34.3156 24.1326 35.9525 23.5904C36.784 23.2908 37.5622 22.8595 38.2578 22.3137C39.5187 21.0522 39.5187 19.007 38.2572 17.7461C36.9951 16.4852 34.9506 16.4858 33.6897 17.7473L33.6879 17.7467Z" fill="#2B98D6"/>
</svg>
