<svg width="12" height="7" viewBox="0 0 12 7" fill="none" xmlns="http://www.w3.org/2000/svg">
<path d="M0.697172 6.2736H10.4561C10.6449 6.2736 10.8083 6.20466 10.9462 6.06668C11.084 5.92873 11.1532 5.76538 11.1532 5.57659C11.1532 5.38779 11.0841 5.22451 10.9462 5.08638L6.06673 0.206917C5.92886 0.0691251 5.76554 0 5.57663 0C5.38772 0 5.22441 0.0691251 5.08642 0.206917L0.206963 5.08638C0.0689801 5.22436 4.57764e-05 5.38779 4.57764e-05 5.57659C4.57764e-05 5.76534 0.0689801 5.92873 0.206963 6.06668C0.345099 6.20466 0.508413 6.2736 0.697172 6.2736Z" fill="#D3D6E4"/>
</svg>
