<svg width="49" height="49" viewBox="0 0 49 49" fill="none" xmlns="http://www.w3.org/2000/svg">
<g clip-path="url(#clip0_3221_43795)">
<path d="M48.765 24.3962C48.765 37.8077 37.8935 48.6792 24.4821 48.6792C11.0711 48.6792 0.199097 37.8077 0.199097 24.3962C0.199097 10.985 11.0711 0.113281 24.4821 0.113281C37.8935 0.113281 48.765 10.985 48.765 24.3962Z" fill="#1BA27A"/>
<path d="M35.8788 12.3574H12.8853V17.9085H21.6065V26.0676H27.1576V17.9085H35.8788V12.3574Z" fill="white"/>
<path d="M24.4347 26.9373C17.2203 26.9373 11.3712 25.7955 11.3712 24.3869C11.3712 22.9785 17.22 21.8364 24.4347 21.8364C31.6492 21.8364 37.498 22.9785 37.498 24.3869C37.498 25.7955 31.6492 26.9373 24.4347 26.9373ZM39.1028 24.8121C39.1028 22.9957 32.5358 21.5234 24.4347 21.5234C16.3339 21.5234 9.76636 22.9957 9.76636 24.8121C9.76636 26.4116 14.8587 27.7442 21.6067 28.0395V39.7522H27.1573V28.0441C33.9573 27.7581 39.1028 26.4199 39.1028 24.8121Z" fill="white"/>
</g>
<defs>
<clipPath id="clip0_3221_43795">
<rect width="48.8087" height="48.8087" fill="white"/>
</clipPath>
</defs>
</svg>
