<svg width="57" height="57" viewBox="0 0 57 57" fill="none" xmlns="http://www.w3.org/2000/svg">
<path d="M28.2416 56.4832C43.8923 56.4832 56.4832 43.8923 56.4832 28.2416C56.4832 12.591 43.8923 0 28.2416 0C12.591 0 0 12.591 0 28.2416C0 43.8923 12.591 56.4832 28.2416 56.4832Z" fill="#2775CA"/>
<path d="M36.0083 32.7125C36.0083 28.594 33.5371 27.182 28.5948 26.5937C25.0646 26.1229 24.3586 25.1816 24.3586 23.534C24.3586 21.8864 25.5354 20.8276 27.8888 20.8276C30.0069 20.8276 31.1837 21.5336 31.772 23.2987C31.8898 23.6518 32.2428 23.887 32.5958 23.887H34.4784C34.9492 23.887 35.3022 23.534 35.3022 23.0635V22.9457C34.8314 20.3568 32.7133 18.3565 30.0069 18.1212V15.297C30.0069 14.8263 29.6539 14.4732 29.0656 14.3555H27.3005C26.8297 14.3555 26.4767 14.7085 26.3589 15.297V18.0034C22.8287 18.4742 20.5931 20.8276 20.5931 23.7695C20.5931 27.6527 22.9465 29.1823 27.8888 29.7709C31.1837 30.3591 32.2428 31.0652 32.2428 32.9481C32.2428 34.8309 30.5952 36.1252 28.3596 36.1252C25.2999 36.1252 24.2408 34.8306 23.8878 33.0655C23.7703 32.595 23.4173 32.3595 23.0643 32.3595H21.0636C20.5931 32.3595 20.2401 32.7125 20.2401 33.1833V33.3011C20.7106 36.2427 22.5935 38.3608 26.4767 38.9494V41.7736C26.4767 42.2441 26.8297 42.5971 27.418 42.7148H29.1831C29.6539 42.7148 30.0069 42.3618 30.1247 41.7736V38.9494C33.6549 38.3608 36.0083 35.8897 36.0083 32.7125Z" fill="white"/>
<path fill-rule="evenodd" clip-rule="evenodd" d="M11.7686 22.4746C8.35592 31.5357 13.0629 41.7732 22.2415 45.0679C22.5945 45.3034 22.9475 45.7739 22.9475 46.127V47.7746C22.9475 48.0098 22.9475 48.1276 22.8297 48.2451C22.7123 48.7159 22.2415 48.9511 21.7707 48.7159C15.1811 46.5978 10.121 41.5377 8.0029 34.9481C4.4727 23.7692 10.5918 11.884 21.7707 8.35381C21.8885 8.23633 22.1237 8.23633 22.2415 8.23633C22.7123 8.35381 22.9475 8.70683 22.9475 9.17762V10.825C22.9475 11.4135 22.7123 11.7665 22.2415 12.0018C17.417 13.7669 13.5337 17.5323 11.7686 22.4746ZM33.6553 8.82451C33.7727 8.35373 34.2435 8.11847 34.7143 8.35373C41.1862 10.4718 46.364 15.5319 48.4821 22.2393C52.0123 33.4182 45.8932 45.3034 34.7143 48.8336C34.5965 48.951 34.3613 48.951 34.2435 48.951C33.7727 48.8336 33.5375 48.4805 33.5375 48.0098V46.3624C33.5375 45.7739 33.7727 45.4208 34.2435 45.1856C39.068 43.4205 42.9513 39.655 44.7164 34.7128C48.1291 25.6517 43.4221 15.4141 34.2435 12.1195C33.8905 11.8839 33.5375 11.4134 33.5375 10.9426V9.2953C33.5375 9.05977 33.5375 8.94228 33.6553 8.82451Z" fill="white"/>
</svg>
