<svg width="22" height="22" viewBox="0 0 22 22" fill="none" xmlns="http://www.w3.org/2000/svg">
<path d="M3.15096 0C1.4125 0 0 1.4125 0 3.15096V18.6884C0 20.3182 1.4125 21.7307 3.15096 21.7307H18.6884C20.4269 21.7307 21.8394 20.3182 21.8394 18.5798V3.15096C21.7307 1.4125 20.3182 0 18.5798 0H3.15096ZM17.4932 4.12884L12.4952 9.77883L18.4711 17.6019H13.799L10.2134 12.8211L6.0846 17.6019H3.69422L9.12691 11.4086L3.36826 4.12884H8.14902L11.4086 8.47498L15.2115 4.12884H17.4932ZM15.6461 16.298L7.38845 5.43268H6.0846L14.4509 16.298H15.6461Z" fill="#293C50"/>
</svg>
